<svg width="173" height="69" viewBox="0 0 173 69" fill="none" xmlns="http://www.w3.org/2000/svg">
<path d="M46.3628 11.2032L46.1333 11.0883C46.0186 11.0308 45.9612 11.0308 45.8464 10.9734C46.076 11.0308 46.2481 11.0883 46.3628 11.2032Z" fill="#D82140"/>
<path d="M45.9038 10.801L45.7891 10.6286C45.7317 10.5712 45.6743 10.5712 45.6169 10.5137C45.6169 10.5137 45.6743 10.6286 45.9038 10.801Z" fill="#D82140"/>
<path d="M46.1907 10.8585C46.1333 10.801 46.0186 10.7435 45.7891 10.5712C45.9612 10.7435 46.1333 10.801 46.1907 10.8585Z" fill="#D82140"/>
<path d="M48.0269 12.582C48.1416 12.6969 48.2564 12.7544 48.4285 12.8693C48.3138 12.7544 48.199 12.6969 48.0269 12.582Z" fill="#D82140"/>
<path d="M47.2236 12.0649C47.5105 12.2948 47.7974 12.4097 48.0843 12.582C47.8548 12.4097 47.5679 12.2373 47.281 11.8926C47.0515 11.8351 47.3957 12.1799 47.2236 12.0649Z" fill="#D82140"/>
<path d="M51.527 16.0291L51.4122 15.7993H51.2975L51.527 16.0291Z" fill="#D82140"/>
<path d="M52.1582 16.259C52.1008 16.144 52.0434 16.0866 51.9286 15.9717C51.8713 15.9142 52.0434 16.0866 52.1582 16.259Z" fill="#D82140"/>
<path d="M46.9367 11.4904C46.8793 11.4904 46.8793 11.433 46.9367 11.4904V11.4904Z" fill="#D82140"/>
<path d="M50.8958 15.1674L50.6089 14.8801H50.4368L50.8958 15.1674Z" fill="#D82140"/>
<path d="M45.6744 10.3414L45.3875 10.2265L45.5596 10.3414H45.6744Z" fill="#D82140"/>
<path d="M44.0677 9.13489C43.8382 9.07743 44.1251 9.30724 43.666 9.13489C44.0103 9.24979 44.5841 9.53705 44.0677 9.13489Z" fill="#D82140"/>
<path d="M44.4693 9.93922C44.5267 9.93922 44.3545 9.76686 44.3545 9.70941L44.0103 9.53705C44.1824 9.65196 44.4693 9.88176 44.4693 9.93922Z" fill="#D82140"/>
<path d="M47.2236 11.6053C47.1088 11.4904 46.994 11.433 46.8793 11.3755L46.9367 11.433C47.0514 11.5479 47.1088 11.6053 47.2236 11.6053Z" fill="#D82140"/>
<path d="M42.461 8.38801C42.1741 8.27311 41.8872 8.1582 41.6003 8.10075C41.9446 8.21565 42.2889 8.33056 42.6332 8.44546L42.461 8.38801Z" fill="#D82140"/>
<path d="M44.3546 9.70941L44.8136 9.93922C44.4694 9.70941 44.3546 9.65196 44.3546 9.70941Z" fill="#D82140"/>
<path d="M41.8299 8.33056C41.8872 8.33056 41.7725 8.27311 41.543 8.21565C41.7151 8.27311 41.8872 8.33056 42.0594 8.38801C42.002 8.38801 42.0594 8.33056 41.8299 8.33056Z" fill="#D82140"/>
<path d="M44.871 9.93922L45.4448 10.2265L44.9857 9.88177C44.9284 9.88177 44.9857 9.99667 44.871 9.93922Z" fill="#D82140"/>
<path d="M44.5841 9.3647L44.6415 9.42215C44.9284 9.65196 45.2726 9.93922 45.33 10.0541C45.2726 9.93922 45.2153 9.82431 45.0431 9.59451C44.9857 9.53705 44.871 9.53705 44.6988 9.42215C44.5267 9.24979 44.6988 9.3647 44.7562 9.3647C44.5841 9.24979 44.2398 9.07743 44.5841 9.3647Z" fill="#D82140"/>
<path d="M44.6989 9.24979C44.6989 9.30724 44.6989 9.30724 44.6989 9.24979C44.8136 9.30724 44.8136 9.3647 44.6989 9.24979Z" fill="#D82140"/>
<path d="M52.2156 16.3164C52.1008 16.3739 52.3877 16.6611 52.6172 17.0058C52.6746 16.8909 52.4451 16.6037 52.2156 16.3164Z" fill="#D82140"/>
<path d="M50.0926 13.4438C50.0352 13.3863 49.9778 13.3289 49.9204 13.2714V13.3289C50.0925 13.5587 50.3221 13.7311 50.0926 13.4438Z" fill="#D82140"/>
<path d="M47.5104 11.433C47.1088 11.1457 47.1662 11.2606 47.0514 11.2606L47.7973 11.7777L47.5104 11.433Z" fill="#D82140"/>
<path d="M53.65 18.04C53.7074 18.1549 53.8222 18.3272 53.9369 18.4421C53.8222 18.3272 53.7074 18.1549 53.65 18.04Z" fill="#D82140"/>
<path d="M53.7649 18.4996C53.8223 18.557 53.8223 18.557 53.8797 18.557C53.8223 18.557 53.8223 18.557 53.7649 18.4996Z" fill="#D82140"/>
<path d="M54.3387 19.189L54.0518 18.6145C54.0518 18.6145 53.9944 18.557 53.937 18.4996C54.1092 18.8443 54.2813 19.189 54.3387 19.189Z" fill="#D82140"/>
<path d="M53.5927 17.7527L53.2484 17.2356L53.3058 17.3505L53.5927 17.7527Z" fill="#D82140"/>
<path d="M52.6747 16.5462V16.7186L52.9042 16.8335L52.6747 16.5462Z" fill="#D82140"/>
<path d="M47.6252 11.95C47.453 11.7777 47.3383 11.7202 47.1661 11.6628C47.3383 11.7202 47.5104 11.8351 47.6252 11.95C47.6826 12.0075 47.7399 12.0075 47.6252 11.95Z" fill="#D82140"/>
<path d="M57.1503 25.6236C57.0929 25.4513 57.0355 25.2215 56.9781 25.3364L57.1503 25.9684C57.265 26.0833 57.2077 25.9109 57.1503 25.6236Z" fill="#D82140"/>
<path d="M57.4372 25.2789C57.3798 25.2215 57.1503 24.5895 57.3224 25.164C57.3798 25.2215 57.6667 26.1407 57.4372 25.2789Z" fill="#D82140"/>
<path d="M48.7727 13.0416C48.7727 12.9842 48.7727 12.9842 48.7727 13.0416C48.7727 13.0416 48.8301 13.0416 48.7727 13.0416C48.8301 13.0416 48.8301 13.0416 48.8301 13.0416C49.117 13.2714 48.8875 13.0991 48.7727 13.0416C48.8301 13.0416 48.7727 13.0416 48.7727 13.0416L49.6334 13.7885C49.4613 13.6162 49.2318 13.3863 48.8875 13.0416C49.0596 13.0991 49.5187 13.4438 49.3465 13.1565C48.8301 12.6969 48.9449 12.8693 48.6006 12.6395C49.4039 13.3863 48.3137 12.4671 48.8875 13.0416C48.7154 12.9267 48.6006 12.7544 48.4285 12.6395C48.5432 12.8118 48.7154 12.9267 48.7727 13.0416C48.8301 13.0416 48.7727 13.0416 48.7727 13.0416Z" fill="#D82140"/>
<path d="M49.0597 13.3863C49.0023 13.2714 48.8876 13.1565 48.7728 13.0416C48.8876 13.1565 49.0597 13.3863 49.0597 13.3863Z" fill="#D82140"/>
<path d="M51.0106 15.1099C50.8958 14.9376 50.2647 14.0758 50.6663 14.363C51.1827 14.8801 51.068 14.8801 51.2401 15.1674C51.1254 14.8801 51.986 15.7993 52.0434 15.5695L51.5844 15.1099C51.5844 15.1099 51.8139 15.2248 51.6991 15.1099C51.5844 15.1099 51.1254 14.7077 50.7811 14.1907C50.3794 13.7885 50.3794 14.3056 50.6089 14.7652C50.6089 14.7077 50.6089 14.7077 51.0106 15.1099Z" fill="#D82140"/>
<path d="M47.74 12.1224C47.9695 12.2373 48.199 12.4097 48.4285 12.6395C48.199 12.4097 47.9121 12.1799 47.6826 12.0075C47.6252 11.95 47.5104 11.95 47.74 12.1224Z" fill="#D82140"/>
<path d="M50.5516 14.7077L50.15 14.2481C50.0352 14.0758 49.8631 13.9609 49.7483 13.846L49.8057 13.9034L49.6335 13.7885C49.8057 13.9609 49.9204 14.1332 50.0926 14.4205C50.3795 14.7077 50.4942 14.7077 50.5516 14.7077Z" fill="#D82140"/>
<path d="M56.6338 23.6128H56.7486L56.5764 23.3256C56.6338 23.4979 56.6338 23.4979 56.6338 23.6128Z" fill="#D82140"/>
<path d="M53.937 19.4188C53.9944 19.5337 53.9944 19.5912 54.0518 19.7061C54.0518 19.7061 53.9944 19.5912 53.937 19.4188Z" fill="#D82140"/>
<path d="M24.4438 61.4163C24.329 61.4163 24.2716 61.4163 24.1569 61.3589C24.2716 61.3589 24.3864 61.4163 24.4438 61.4163Z" fill="white"/>
<path d="M56.5764 44.0658C56.4616 44.5829 56.2895 44.7552 56.519 44.6403C56.8633 43.8934 56.4616 44.4105 56.8059 43.7211C56.8633 43.4913 56.5764 44.2381 56.5764 44.0658Z" fill="#D82140"/>
<path d="M55.2567 44.2381L55.3715 44.1807C55.4862 43.9509 55.5436 43.7211 55.6584 43.5487C55.4862 43.8934 55.1419 44.2381 55.2567 44.2381Z" fill="#D82140"/>
<path d="M57.2077 28.4963C57.2077 28.4388 57.2077 28.3813 57.2077 28.3239C57.1503 28.0941 57.0929 27.8068 57.0355 27.5196C57.0929 27.8068 57.0929 28.1515 57.2077 28.4963Z" fill="#D82140"/>
<path d="M25.4192 60.4971C25.2471 60.4971 25.1897 60.4971 25.1897 60.4971C25.3618 60.5545 25.4192 60.5545 25.4192 60.4971Z" fill="white"/>
<path d="M52.8468 50.7877C53.0189 50.3855 53.1337 50.2132 53.3632 49.9833L52.9616 50.0983C52.9042 50.2706 52.8468 50.5004 52.8468 50.7877Z" fill="#D82140"/>
<path d="M53.3058 49.9834C53.3632 49.9259 53.3632 49.9259 53.3058 49.9834C53.3632 49.9259 53.3058 49.9834 53.3058 49.9834Z" fill="#D82140"/>
<path d="M41.8872 59.2331C42.002 59.1757 42.1741 59.1757 42.4036 59.0608L41.8872 59.2331Z" fill="white"/>
<path d="M42.4611 59.0033C42.4037 59.0033 42.4037 59.0033 42.3463 59.0033C42.289 59.0608 42.2889 59.0608 42.4611 59.0033Z" fill="white"/>
<path d="M57.0355 27.5196C56.9782 27.1174 56.9782 26.7727 56.8634 26.6578C56.9208 27.0025 56.9782 27.2898 57.0355 27.5196Z" fill="#D82140"/>
<path d="M58.6422 36.0225C58.4126 36.4246 57.8962 36.4821 57.7815 36.1948C57.7815 36.0799 58.0684 34.816 58.1257 34.5287C58.2979 34.0691 58.4126 35.2181 58.5848 34.816C58.5274 34.816 58.5274 34.5287 58.47 34.4713C58.5274 34.184 58.5848 34.5862 58.5848 33.9542C58.4126 33.8393 58.6422 32.6903 58.47 33.6669C58.47 33.0924 58.47 33.035 58.47 32.3455C58.3553 32.5754 58.1257 31.7136 58.011 31.139C58.0684 31.1965 58.0684 31.0241 58.1257 30.9667C58.1257 30.7943 58.1257 30.6794 58.1257 30.5071C58.1257 30.3922 58.0684 30.2198 58.0684 30.1049C58.0684 29.8751 58.011 29.6453 58.011 29.4155C57.9536 28.9559 57.8962 28.4963 57.8388 27.9217C57.8962 27.8068 57.7815 27.2898 57.8962 27.4621C57.8388 27.2898 57.7241 27.1749 57.6667 26.8301C57.6093 26.1407 57.8962 27.577 57.8962 27.0599C57.7815 27.0599 57.5519 26.1982 57.3798 25.7385C57.265 25.9109 57.6093 26.8876 57.8388 27.3472C57.6667 27.4047 57.265 26.6003 56.8634 25.4513C56.5765 24.5895 56.8634 25.0491 56.806 24.8768C56.5191 24.015 56.347 23.7277 56.1175 23.4405C55.9453 23.1532 55.8306 22.8659 55.5437 22.1765C55.4289 21.602 55.7732 22.0616 55.7732 21.8893C56.1748 22.5787 56.1748 22.9808 56.347 23.4979L56.1748 22.8659C56.2896 23.0958 56.5191 23.5554 56.5765 23.8426C56.5765 23.7277 56.5191 23.4979 56.4044 23.1532C56.347 22.9808 56.2896 22.8085 56.2322 22.6361C56.1748 22.4638 56.0601 22.2914 56.0027 22.0616C55.8306 21.6594 55.6584 21.2573 55.4289 20.8551C55.2568 20.453 55.0846 20.0508 54.9125 19.7635C54.7403 19.5912 54.5108 19.2465 54.5682 19.4188L54.7977 19.7635C54.9125 20.1657 54.2813 19.1316 54.5108 19.6486C54.1665 19.189 53.7649 18.6719 53.3632 17.9825V17.8102C53.3632 17.8102 53.4206 17.9251 53.478 18.0974C53.5354 18.2123 53.6501 18.3847 53.7075 18.4996C53.5354 18.2123 53.1911 17.3505 52.7894 17.1782L53.0189 17.6953C52.6173 17.2931 52.1009 16.776 51.6992 16.2015C51.7566 16.5462 51.814 16.3164 51.9861 16.8335C51.8713 16.3739 53.0189 18.3272 52.7894 17.6378C52.8468 17.9251 52.9616 18.0974 53.1337 18.3272C53.2485 18.557 53.3632 18.7868 53.478 19.1316C53.478 19.0741 53.4206 18.9017 53.7075 19.4188C53.7075 19.4188 53.7649 19.4763 53.8223 19.5337C53.8223 19.5337 53.8223 19.5337 53.8223 19.5912V19.5337C53.7649 19.4188 53.7075 19.3039 53.7075 19.2465C53.937 19.4763 54.4534 20.2806 54.6256 20.5104C54.7403 20.8551 54.5108 20.3955 54.5682 20.6253L54.8551 21.0275C54.7977 21.1424 55.0846 21.9467 54.683 21.1998L54.9699 21.8893C55.0846 22.2914 55.3715 22.8659 55.5437 23.2107C55.6584 23.5554 55.9453 24.015 55.7732 23.7277L56.2322 24.8193C56.4617 25.3364 56.6339 25.9109 56.806 26.5429C56.8634 26.8301 56.9781 27.1174 57.0355 27.4621C57.0929 27.6345 57.0929 27.7494 57.1503 27.9217C57.1503 28.0941 57.1503 28.2664 57.1503 28.4388C57.2077 28.841 57.3224 29.2431 57.3798 29.8751C57.4946 30.3922 57.4372 31.3689 57.5519 31.5987C57.4372 31.8859 57.4372 32.4604 57.4946 33.1499C57.4946 33.7818 57.5519 34.4713 57.4946 34.9309L57.6093 34.9883C57.5519 35.6203 57.5519 36.1948 57.4946 36.9417L57.6093 36.8843C57.6093 37.229 57.5519 37.6311 57.4372 38.0908C57.3224 38.5504 57.2077 39.0674 57.0929 39.5271C57.0929 39.4696 57.1503 39.1823 57.2077 39.01C56.7486 40.159 56.7486 41.5953 56.1748 42.572C56.1175 42.8593 56.0027 43.0316 55.9453 43.204V43.1465C55.9453 43.1465 55.9453 43.204 55.8879 43.2614C55.8306 43.3764 55.7732 43.4913 55.7158 43.6062C55.7732 43.4913 55.8306 43.4338 55.8879 43.3189C55.8306 43.4913 55.7158 43.836 55.601 44.1232L55.4289 44.1807V44.2381C55.2568 44.5254 55.3715 44.4679 55.5437 44.353C55.4863 44.5254 55.4289 44.6403 55.4289 44.7552C55.3141 44.8127 55.1994 45.0425 55.142 45.2148C55.0272 45.4446 54.9699 45.617 54.7977 45.7319C54.7977 45.8468 54.6256 46.1915 54.4534 46.5937C54.2813 46.9384 54.1092 47.3405 54.1665 47.4555C54.1665 47.4555 54.1092 47.5129 54.1665 47.398C53.9944 47.6853 53.7649 47.9725 53.6501 48.2598L53.3632 48.3747C53.2485 48.6045 53.1911 48.8918 53.0763 49.1216C52.732 49.4663 52.5599 49.5812 52.7894 49.1216C52.273 50.1557 52.3304 49.9259 51.814 50.7877L51.7566 50.6728C51.5271 50.96 51.2976 51.4196 51.068 51.5345C50.7811 51.7644 50.0926 52.5112 49.2893 53.2581C48.4859 54.0624 47.5105 54.8093 46.7072 55.3838C47.1662 55.3838 45.9039 55.8435 45.9612 56.0158C45.8465 56.0158 45.5596 56.1882 45.7891 55.9584C45.3874 56.3031 45.0432 56.4754 44.7563 56.6478C44.4694 56.8201 44.2398 56.9925 43.9529 57.2223C43.8382 57.2223 44.0677 57.05 44.0103 57.05C43.9529 57.1074 43.7808 57.2798 43.666 57.2798C43.5513 57.2798 43.7808 57.1649 43.8956 57.05C43.0349 57.567 42.9775 57.7968 43.0349 57.9692C42.5184 58.1415 42.2889 58.2564 42.002 58.5437C41.8299 58.5437 41.4856 58.6586 42.0594 58.3714C41.8873 58.4288 41.3708 58.6586 40.9118 58.831C40.4528 59.0033 39.9937 59.2331 39.9937 59.2906C39.879 59.2906 39.5347 59.4629 39.4199 59.5204C38.6166 59.7502 38.5592 59.8077 37.8133 60.0375L38.0428 59.98C37.8133 60.2098 37.4116 60.2098 36.7805 60.3822C35.2886 60.5545 36.1493 60.612 34.7148 60.7269L34.8296 60.8418C34.7148 61.1291 33.5098 60.8992 32.7065 61.0716C32.8213 61.0716 32.936 61.0716 32.9934 61.1291C32.5344 61.244 31.6737 60.8992 31.2146 60.8992C31.0999 60.8992 31.3868 60.8418 31.5015 60.8418C30.2966 60.7269 31.3294 61.0142 30.4687 61.0716C30.2965 61.0142 30.6982 60.8418 30.067 60.8992C29.7801 60.8418 28.2883 61.1291 27.4849 60.8992C27.6571 60.9567 27.8292 61.0716 27.4276 61.0716C26.7964 61.0142 25.7635 60.6694 25.1324 60.7269C25.075 60.6694 25.0176 60.6694 25.0176 60.6694C24.5012 60.6694 23.4684 60.4396 23.1241 60.4396C23.0667 60.3822 22.9519 60.2673 22.7798 60.2098L22.665 61.244C23.0093 61.3014 23.1241 61.1291 23.9274 61.3589C24.2717 61.4738 24.5586 61.5312 24.2717 61.5312L25.1324 61.5887C25.3045 61.6461 25.3045 61.6461 25.1898 61.6461C25.5914 61.7036 25.9931 61.761 26.3373 61.8185C26.5095 61.8185 26.9685 61.761 27.1407 61.761C27.4849 61.8185 26.9685 61.761 27.0259 61.8185H27.7718C28.0587 61.9334 27.4849 61.9334 26.9685 61.8759C27.3128 62.0483 27.4276 62.0483 27.7145 62.0483C27.944 62.0483 28.2883 62.0483 29.0342 62.1057C28.8047 62.1057 28.5752 62.1057 28.3456 62.1057C28.8047 62.2781 29.3211 62.2781 30.1244 62.393C29.9523 62.3355 28.5752 62.1057 29.3785 62.0483C29.608 62.0483 29.8949 62.1057 30.2965 62.0483C30.2965 62.1632 30.6982 62.1057 31.2146 62.1057L31.1572 62.2781C31.731 62.2206 31.6737 62.1057 32.0179 62.0483C32.6491 61.9908 32.7639 62.1057 32.936 62.2206C33.9115 62.1057 32.2475 62.1057 33.3951 61.9334C34.1984 61.8759 34.7722 61.7036 35.7476 61.4738C36.3214 61.4163 35.6902 61.5887 35.8624 61.5887L36.3214 61.3589C36.4362 61.3589 36.4362 61.3589 36.3788 61.4163C36.7805 61.3014 36.3788 61.244 37.01 61.0716C37.1247 60.8418 38.4445 60.9567 39.133 60.4971C39.3626 60.4971 39.0757 60.612 39.133 60.6694C39.6495 60.4396 39.879 60.3247 40.1085 60.2098C40.2806 60.0949 40.4528 59.98 40.9118 59.7502L41.6577 59.5204C41.0839 59.6353 41.7151 59.2331 42.2315 58.8884C42.002 58.9459 41.8299 58.9459 41.7151 59.0033C42.002 58.831 42.2889 58.6586 42.6332 58.4863C42.748 58.4288 42.6906 58.5437 42.5758 58.6586C42.6332 58.6012 42.6906 58.6012 42.748 58.5437C43.0922 58.4288 42.9775 58.6012 42.748 58.7735C42.6332 58.831 42.5184 58.831 42.3463 58.8884C42.1742 59.1182 42.002 59.2906 42.0594 59.348C42.1168 59.2906 42.2315 59.2331 42.3463 59.1757C42.2889 59.2331 42.2889 59.2906 42.2889 59.2906C42.3463 59.2906 42.4037 59.2331 42.5758 59.1182L42.8627 59.1757V59.1182C43.3218 58.9459 43.7234 58.7735 44.1251 58.5437C44.5267 58.2564 44.871 57.9117 45.2727 57.5096C45.6743 57.1649 46.1334 56.7052 46.7072 56.2456C46.4776 56.5903 46.7645 56.4754 46.8219 56.5903C46.3629 56.7052 45.9038 57.3372 45.1579 57.7968C45.5022 57.567 45.5022 57.6819 45.3874 57.7394C45.7891 57.4521 46.1334 57.1074 46.535 56.8201C46.5924 56.935 46.8219 56.7052 47.1662 56.5329C46.8219 56.5329 47.9121 55.786 48.3138 55.3264C48.3712 55.3838 48.3138 55.4987 47.7974 55.9584C48.5433 55.5562 48.4286 55.0966 49.0597 54.6944C48.945 54.8093 48.8302 54.8668 48.8302 54.9242C49.1171 54.5795 49.8631 53.9475 49.7483 54.1774L49.9204 53.7752C50.7811 52.9708 52.3304 51.1898 52.273 50.9026C52.273 50.9026 52.3878 51.1898 52.3304 51.2473L52.732 50.2132L53.0763 49.179C53.1337 49.4088 53.8223 49.0641 53.3632 49.9259C53.5354 49.6961 53.7649 49.4663 54.0518 48.9492C53.937 49.1216 53.5927 49.2365 53.7075 49.0067C54.2239 48.4896 54.0518 48.6619 54.683 47.9725C54.5108 48.2023 54.4534 47.8002 54.683 47.398C54.683 47.4555 54.9125 47.5129 54.8551 47.6278C54.9699 47.2831 55.0846 46.8809 55.1994 46.5362C55.142 46.8235 55.3715 46.7086 55.5437 46.4788C55.4289 46.5362 56.0027 45.617 56.0601 45.3297C56.0027 45.4446 55.8879 45.617 55.8306 45.7319C56.4044 44.5828 56.0601 44.4679 56.5191 43.3189C56.5191 43.4913 56.6912 43.7785 56.9208 43.204C56.9208 43.0316 56.8634 42.6869 56.8634 42.2273C56.8634 41.7677 56.8634 41.2506 56.9781 40.7336L57.0929 40.5612C57.1503 40.2739 57.1503 39.9867 57.2077 39.7569C57.2077 39.8718 57.265 40.1016 57.265 40.3314C57.265 40.5612 57.265 40.8485 57.265 41.1357C57.265 41.7102 57.2077 42.2848 57.1503 42.6869C57.3798 42.2273 57.265 42.572 57.4946 41.94C57.6667 41.7102 57.4946 42.3422 57.4372 42.5146C57.6667 41.9975 57.7815 41.4804 57.9536 40.9059C57.7815 40.9634 58.1257 39.642 57.9536 39.642C57.8962 39.9292 57.8962 40.2165 57.8388 40.5612L57.6667 41.423C57.4946 41.423 57.5519 40.3314 57.8388 39.1823C57.9536 38.8951 58.0684 39.4696 58.1257 39.4696C58.1257 39.2972 58.2405 38.378 58.2979 38.2631V38.7802C58.47 38.1482 58.2979 37.6886 58.5274 36.9417C58.47 36.597 58.7569 36.0799 58.6422 36.0225ZM55.3715 22.234C55.4289 22.234 55.4289 22.234 55.3715 22.234C55.5437 22.6361 55.4863 22.5212 55.3715 22.234ZM28.7473 61.9334C28.9768 61.8185 29.149 61.8759 29.4932 61.9334C29.3211 61.9334 28.9194 61.9908 28.7473 61.9334ZM43.3218 58.3714C43.4939 58.2564 43.666 58.199 43.8956 58.0841C43.7808 58.199 43.6087 58.3139 43.3218 58.3714Z" fill="#D82140"/>
<path d="M52.7321 17.5804C52.7321 17.5804 52.7321 17.6953 52.6747 17.5804L53.019 18.04C52.8468 17.8102 52.7894 17.7527 52.7321 17.5804Z" fill="#D82140"/>
<path d="M58.1831 35.5054L58.2405 35.3331H58.011L58.1831 35.5054Z" fill="#D82140"/>
<path d="M54.5682 20.453C54.5108 20.2806 54.396 20.3955 54.396 20.2806C54.2813 20.2231 54.5108 20.453 54.6255 20.6253C54.7403 20.8551 54.7977 20.9126 54.5682 20.453Z" fill="#D82140"/>
<path d="M42.5184 58.6012C42.5758 58.6012 42.5758 58.6012 42.6332 58.6012C42.6906 58.5437 42.748 58.4288 42.8627 58.3714C42.748 58.4288 42.6332 58.4863 42.5184 58.6012Z" fill="white"/>
<path d="M54.0518 19.821C54.1091 19.8784 54.1665 19.9933 54.2239 20.1082C54.1665 19.9933 54.1091 19.8784 54.0518 19.821C54.0518 19.7635 54.1091 19.821 54.0518 19.821Z" fill="#D82140"/>
<path d="M53.8797 19.5337C53.8223 19.4763 53.8223 19.4188 53.7649 19.3614C53.7649 19.3039 53.7649 19.3039 53.8797 19.5337Z" fill="#D82140"/>
<path d="M54.0517 19.821C53.937 19.5912 54.0517 19.7635 54.0517 19.821V19.821Z" fill="#D82140"/>
<path d="M58.1257 30.9667C58.1831 30.9092 58.1831 30.9092 58.1257 30.9667V30.9667Z" fill="white"/>
<path d="M58.6421 34.4713C58.6421 34.6436 58.5847 34.7585 58.5847 34.816C58.6421 34.816 58.6421 34.7585 58.6421 34.4713Z" fill="#D82140"/>
<path d="M23.7553 61.4163H23.87L23.6979 61.244L23.7553 61.4163Z" fill="white"/>
<path d="M37.1247 6.31973L37.0099 6.26228C36.8952 6.26228 36.7804 6.31973 36.723 6.31973C37.469 6.49209 38.4444 6.7219 38.9608 6.89425C38.6739 6.66445 37.6985 6.54954 37.1247 6.31973Z" fill="#D82140"/>
<path d="M35.5181 6.03247H35.4033L35.9771 6.08993L35.5181 6.03247Z" fill="#D82140"/>
<path d="M39.1904 6.8368L38.8461 6.66445L38.5018 6.60699C38.674 6.66445 39.1904 6.89425 39.1904 6.8368Z" fill="#D82140"/>
<path d="M14.2875 10.5137C14.1728 10.5712 14.0006 10.7435 13.9432 10.7435L14.1154 10.801L14.2875 10.5137Z" fill="#D82140"/>
<path d="M31.731 5.74521C31.5015 5.68776 31.5589 5.80266 31.5589 5.80266C31.9031 5.86012 31.731 5.68776 31.731 5.74521Z" fill="#D82140"/>
<path d="M41.6577 8.44546C42.1168 8.67527 42.0594 8.56037 41.8299 8.38801C41.6578 8.33056 41.543 8.27311 41.3708 8.21565C41.4282 8.33056 41.8299 8.50291 41.6577 8.44546Z" fill="#D82140"/>
<path d="M41.1987 7.92839C40.338 7.58368 40.3954 7.75604 41.2561 8.10075C41.0266 7.98584 40.7397 7.81349 41.1987 7.92839Z" fill="#D82140"/>
<path d="M40.2233 7.75604C39.879 7.64113 40.4528 7.92839 40.2233 7.75604V7.75604Z" fill="#D82140"/>
<path d="M56.5764 44.0658C56.5764 44.0083 56.6338 43.8934 56.6338 43.836C56.5764 43.9509 56.5764 44.0083 56.5764 44.0658Z" fill="#D82140"/>
<path d="M40.1659 7.75604C40.2233 7.75604 40.2233 7.81349 40.2233 7.81349C40.2807 7.87094 40.3954 7.87094 40.5676 7.92839C40.5102 7.81349 40.9692 8.0433 40.1659 7.75604Z" fill="#D82140"/>
<path d="M14.1728 57.2223C14.058 57.1649 13.9433 57.1649 13.8285 57.1074C14.2301 57.3947 14.058 57.2223 14.1728 57.2223Z" fill="#D82140"/>
<path d="M17.9025 59.5779C18.132 59.6928 18.4189 59.8077 18.6484 59.8651C18.132 59.6928 17.9025 59.4055 17.9025 59.5779Z" fill="white"/>
<path d="M42.0593 8.44546C42.1167 8.50291 42.1741 8.50291 42.2888 8.56037L42.0593 8.44546Z" fill="#D82140"/>
<path d="M30.985 62.2207C30.9277 62.1632 30.8129 62.1632 30.5834 62.1632L30.985 62.2207Z" fill="white"/>
<path d="M13.2548 11.4904L13.6564 11.2032L13.3695 11.3755L13.2548 11.4904Z" fill="#D82140"/>
<path d="M3.21327 42.3997C3.21327 42.3422 3.21327 42.3422 3.21327 42.3997C3.09851 42.1124 3.09851 42.1699 3.21327 42.3997Z" fill="#D82140"/>
<path d="M4.07397 21.2573L4.13135 21.1998C4.13135 21.1998 4.07397 21.1998 4.07397 21.2573Z" fill="#D82140"/>
<path d="M17.8451 59.1182C18.7058 59.4629 18.132 59.4055 18.4189 59.5778C18.5337 59.6353 18.7058 59.6353 18.878 59.6927L18.9353 58.6012C18.5911 58.4288 18.3042 58.3139 18.0746 58.2564C17.8451 58.1415 17.673 58.1415 17.5008 58.0841C17.3287 57.9692 17.5008 58.0266 17.5008 58.0266C16.8697 57.6819 16.5828 57.4521 16.2385 57.2798C15.8942 57.1074 15.6073 56.9925 15.0909 56.7627L15.0335 56.5903C14.6892 56.4754 13.4269 55.3264 12.3367 54.5221C12.3367 54.5221 12.394 54.5221 12.5088 54.5795C12.2219 54.3497 11.8776 54.0624 11.5334 53.7752C11.2465 53.4879 10.9596 53.1432 10.6727 52.8559C10.1562 52.224 9.6972 51.7644 9.35292 51.6495L8.60698 50.96C9.46768 51.9942 8.32009 50.9026 8.66436 51.3622C8.32009 50.96 7.91843 50.2131 8.32009 50.7302L8.37747 50.8451C8.5496 50.8451 8.32009 50.5579 8.03319 50.1557C7.74629 49.811 7.45939 49.4088 7.51677 49.4088C5.96752 47.2831 4.93468 44.9276 4.13136 42.6295C4.13136 42.7444 4.07398 42.8593 4.07398 42.9742C3.95922 42.6869 3.90184 42.4571 3.78708 42.1699C3.7297 41.94 3.78708 41.8251 4.0166 42.3997C4.0166 42.055 3.61495 41.4804 3.55757 41.423C3.27067 40.2739 3.84446 41.8251 3.78708 41.4804L3.61495 41.0208V41.1357C3.44281 40.791 3.32805 40.7335 3.15591 40.0441C3.09853 39.5845 3.21329 39.8143 3.15591 39.5845C3.15591 39.5845 3.15591 39.5271 3.09853 39.2972C3.04115 38.9525 2.92639 38.6078 2.92639 38.2631L2.86901 38.7227C2.69687 38.2631 2.69687 37.746 2.63949 38.2631C2.69687 37.8609 2.52473 36.8843 2.46735 35.9076C2.40997 35.448 2.40997 34.9309 2.35259 34.5862C2.35259 34.184 2.35259 33.8967 2.35259 33.7818C2.29521 33.4371 2.29521 33.0924 2.29521 32.7477C2.29521 32.403 2.29521 32.0008 2.35259 31.5987C2.35259 31.8285 2.12307 31.9434 2.23783 31.1965C2.52473 31.4838 2.46735 29.9326 2.81163 29.358C2.58211 29.8176 3.09853 27.4047 2.75425 28.1515C2.86901 27.577 2.86901 28.1515 3.04115 27.6919C3.21329 26.3131 3.84446 24.7044 4.41826 23.0958C4.41826 23.0383 4.24612 23.3256 4.3035 22.9234L4.81992 22.1765C4.93468 21.8318 4.70516 21.7744 5.10682 21.3147C5.04944 21.3722 4.93468 21.4871 5.04944 21.2573C5.85276 19.7635 6.71345 18.2698 7.74629 16.8335C8.26271 16.144 8.77912 15.4546 9.35292 14.8226C9.9841 14.1907 10.5579 13.6162 11.3038 13.0991C10.9022 13.3863 11.1317 13.1565 11.3612 12.8693C11.1891 13.0416 11.3038 12.8118 11.2465 12.8118C11.6481 12.5246 12.0498 12.2373 12.4514 11.95C12.5088 11.8351 12.7957 11.5479 13.0826 11.3181C13.3695 11.0883 13.6564 10.8585 13.7138 10.801L13.3695 11.0883C13.7712 10.5712 12.4514 11.3181 12.394 11.0883C12.1645 11.3755 11.8202 11.6053 11.3612 11.8926C10.9596 12.1799 10.5005 12.582 10.1562 13.0416C9.92672 13.1565 10.271 12.8693 10.1562 12.9267C9.9841 13.214 9.81196 13.4438 9.29554 13.9034L9.35292 13.846C8.14795 15.2248 7.57415 15.7419 6.36917 17.408L6.54131 17.3505C6.31179 17.6953 6.19703 17.7527 6.08227 17.9251C5.96752 18.4421 6.77083 16.8909 6.65607 17.3505C6.13966 17.6953 4.99206 19.9933 4.64778 20.2231C4.36088 20.8551 4.81992 20.1082 4.53302 20.6828L4.41826 20.7977V20.97C4.18874 21.3722 4.07398 21.5445 4.0166 21.5445C3.95922 21.602 4.0166 21.3722 4.07398 21.2573C3.78708 21.7744 3.44281 22.8085 3.38543 22.9808C3.50019 22.8085 3.55757 22.5787 3.67233 22.4063C3.04115 24.1299 2.29521 26.3131 2.12307 28.0941L2.18045 27.9792C2.12307 28.6686 2.06569 28.9559 2.00831 29.1857C1.95093 29.3006 1.95093 29.4729 1.89355 29.7027C1.83617 29.9326 1.83617 30.1624 1.83617 30.5645V30.5071C1.83617 30.7943 1.83617 31.1965 1.83617 31.5987C1.77879 31.1965 1.72141 32.2881 1.66403 31.8285C1.72141 33.3222 1.72141 32.5754 1.89355 33.552L1.72141 33.7244C1.77879 34.0691 1.83617 34.0691 1.89355 34.816C1.77879 34.184 1.77879 35.2756 1.66403 34.6436C1.54927 36.2523 2.06569 36.9417 1.89355 37.6886C2.23783 38.378 1.83617 36.3097 1.95093 36.7119C2.00831 36.3672 2.18045 37.2864 2.23783 37.746C2.29521 37.9758 2.23783 38.2057 2.23783 38.5504C2.23783 38.8951 2.23783 39.2972 2.35259 39.8718C2.29521 39.7569 2.29521 39.7569 2.29521 39.642C2.35259 40.1016 2.58211 40.5037 2.63949 41.1357C2.86901 41.3655 2.81163 41.8251 3.04115 41.8251C2.92639 41.4804 2.81163 41.0783 2.69687 40.7336C2.81163 41.0208 2.98377 41.3081 3.09853 41.6528C3.27067 41.9975 3.44281 42.3997 3.55757 42.9167C3.50019 42.8593 3.32805 42.572 3.27067 42.3422C3.32805 42.6295 3.50019 42.9167 3.55757 43.204C3.44281 43.204 3.32805 42.8593 3.21329 42.4571C3.04115 42.0549 2.92639 41.5953 2.75425 41.2506C2.75425 41.5953 3.27067 42.4571 2.98377 42.2273C3.15591 42.4571 3.27067 42.7444 3.38543 43.0891C3.50019 43.4338 3.61495 43.7785 3.84446 44.1807H3.7297C3.78708 44.2956 3.95922 44.5254 4.07398 44.7552L3.78708 44.4105C4.18874 44.985 4.24612 45.6744 4.5904 46.249C3.95922 44.985 4.5904 45.9042 4.36088 45.3297C4.76254 46.0766 4.8773 46.3064 4.8773 46.5937C4.93468 46.8809 4.99206 47.1682 5.50848 48.03C5.33634 47.8002 5.04944 47.1682 5.33634 47.4554C5.50848 47.8002 5.68062 48.2023 5.79538 48.4321C6.48393 49.5237 5.79538 48.2023 6.13965 48.6045C6.25441 49.0641 6.54131 49.1216 6.88559 49.5237L6.77083 49.5812C7.57415 50.7877 7.17249 49.7535 7.91843 50.8451L7.45939 50.5004L7.91843 51.0175L7.74629 50.96C8.26271 51.4771 8.43484 51.6495 8.8365 52.224C8.77912 52.0516 9.00864 52.1665 9.46768 52.6261C9.6972 52.9709 9.23816 52.5112 9.86934 53.1432C9.6972 53.0283 9.46768 52.9134 9.23816 52.5687C9.18078 52.5687 9.06602 52.4538 9.00864 52.4538C9.29554 52.8559 9.81196 53.3156 10.0415 53.5454C9.92672 53.4305 9.86934 53.3156 9.81196 53.2581C10.1562 53.5454 10.5005 53.7752 10.8448 54.0624C10.9596 54.2348 10.8448 54.1199 10.6727 54.0624C10.8448 54.2348 11.0169 54.3497 11.3612 54.5795C11.2465 54.5795 11.1891 54.6944 10.73 54.3497C11.0743 54.637 11.4186 54.8668 11.7629 55.0966C11.8203 55.2115 12.2219 55.6136 12.0498 55.4987C12.3367 55.7286 12.6809 55.9584 13.0826 56.2456C13.4843 56.4754 13.8859 56.7627 14.2876 57.05C14.345 57.05 14.4023 57.1074 14.5745 57.2223C15.3204 57.7394 15.8942 58.199 16.8697 58.6012L17.3287 59.0033C18.0173 59.4629 16.6402 58.6012 17.8451 59.1182ZM3.15591 39.5271V39.6994C3.04115 39.2972 3.09853 39.4122 3.15591 39.5271Z" fill="#D82140"/>
<path d="M11.7055 12.582C11.6481 12.6395 11.476 12.8118 11.3612 12.9267C11.4186 12.8693 11.5333 12.7544 11.7055 12.582Z" fill="#D82140"/>
<path d="M37.1821 42.572L34.7148 33.3797L34.8295 27.577L33.3377 25.5087L27.944 23.4405V24.8193L26.6816 30.4496L25.8209 31.7136L24.9028 35.2756L23.8126 45.2723L23.9274 51.9367C23.9274 51.9367 24.7307 53.9475 24.7881 54.005C24.8455 54.005 27.4275 54.5795 27.4275 54.5795L33.6819 54.637L35.9198 51.5346L36.8378 43.9509L37.1821 42.572Z" fill="#D82140"/>
<path d="M46.4202 46.6511L51.1828 45.0425V43.6636H45.4448V42.9742H39.133L38.7887 41.8826L40.1085 41.8251L43.4365 39.6994C43.7808 39.8718 44.4693 40.1016 44.6415 40.0441C44.9284 39.9292 46.4776 38.6078 46.5924 38.3206C46.7071 38.1482 46.7071 37.8035 46.6498 37.5737L48.8876 36.1374C49.0023 36.0799 49.0597 35.9076 48.945 35.7927C48.8876 35.6778 48.7154 35.6203 48.6007 35.7352L46.4776 37.1141C46.3629 36.9417 46.1907 36.6545 46.0186 36.4246L48.0269 35.0458C48.1416 34.9883 48.199 34.816 48.0843 34.7011C48.0269 34.5862 47.8547 34.5287 47.74 34.6436L45.6169 36.0799C45.2153 35.9076 44.0103 35.3331 44.0103 35.3331L40.2806 31.3689V30.1049L39.4773 28.9559L38.8461 28.841L38.6166 27.5196C38.6166 27.5196 37.8133 23.7852 37.5264 23.1532C37.2969 22.5212 35.7476 21.1998 35.7476 21.1998C35.7476 21.1998 34.6574 20.6253 33.9688 20.1657L35.4607 25.2215L35.3459 32.1157L34.4852 32.9775H32.477L32.9934 32.0008L29.8375 32.9775L27.0259 32.4604L26.6816 31.5987V31.1965L27.198 30.7943L27.6571 27.577L28.3456 27.9792L28.1735 23.4979L26.9685 17.5229L27.5997 17.6378L29.3784 22.9234L34.4279 24.7044L34.3705 22.8659L33.1081 19.3039L32.5343 18.9018L32.5917 18.3272C32.5917 18.3272 33.9114 16.6037 33.9688 16.259C34.0262 15.9142 34.141 13.6736 34.141 13.6736L34.6 11.2032L33.395 10.3988L33.0508 9.82431L30.3539 9.59451L28.3456 10.5712L27.1406 12.4097L27.3702 14.995L27.8292 15.9142L27.5423 17.408H27.0259L24.8454 15.7419L24.9028 14.363L24.0421 13.5012L23.2388 13.6162L22.8372 13.214L24.4438 8.50291L25.4766 7.52623L26.0504 7.81349C26.0504 7.81349 26.5095 7.98585 26.739 7.69858C26.9685 7.41132 27.3128 7.06661 27.1406 6.54954C27.0833 6.43464 26.739 6.14738 26.1652 5.86012L26.2226 5.80266L26.1652 5.11324L24.0995 3.9642L23.0667 4.36636C22.2634 3.9642 21.5174 3.67694 21.001 3.38968L21.2305 0.746878L19.337 0L16.8697 0.631973L17.0992 6.43464L18.9353 7.29642L20.7715 6.43464L20.8289 5.34305L22.3207 6.08993L21.9191 7.41132L17.7877 12.2948L17.673 13.7885L18.8206 16.0291L18.6484 16.9484L19.6239 18.2123L20.7141 18.3272L21.0584 19.4763L23.0667 21.4871L23.6978 23.0958L23.6405 29.9326L24.5585 32.0583L24.0995 33.1499L24.1569 36.9417L21.4027 44.0658L20.8289 47.6278L18.4763 53.2581L16.468 65.438H13.4269L9.9267 66.7019L0 69L58.011 66.9892L49.0023 66.2423L47.5105 53.4879H44.0677L42.1168 51.3047V49.9259L46.4202 46.6511ZM28.2309 18.4421L30.4113 20.1082L30.067 21.5445L28.2309 18.4421ZM29.5506 22.4063L30.9277 21.0275L32.4196 23.383L29.5506 22.4063ZM27.7144 14.0758C27.7144 13.5587 28.4604 13.7885 28.4604 13.7885L29.3784 14.4205V12.8118L28.862 12.2948L30.1244 10.3414L31.6736 10.4563L32.5917 9.99667L32.8212 10.5712L34.3131 11.3181L33.9114 12.9842L33.0508 11.6628L32.3048 12.0649L32.8786 12.1224L33.7393 13.5587L33.5672 16.0866C33.5672 16.0866 32.6491 18.04 31.6163 18.04C30.526 18.04 29.4358 17.0058 29.4358 17.0058L30.5834 18.7294L31.1572 18.8443L31.3294 19.5337L32.0179 19.7635L31.5589 20.9126L28.6899 17.9251C28.6899 17.9251 28.6899 17.0633 28.6899 16.3164C27.5423 15.2823 27.7144 14.5928 27.7144 14.0758ZM17.673 0.80433L19.3944 0.229808L20.8289 0.80433L19.0501 1.55121L17.673 0.80433ZM20.7715 3.27477C20.4272 3.10241 20.1977 3.04496 20.1977 3.04496C20.1977 3.04496 19.4517 3.21732 19.4517 3.90674C19.4517 4.59617 19.9108 4.82598 19.9108 4.82598L20.6567 5.17069L20.5993 6.20483L19.0501 6.95171L19.1075 1.89592L21.001 1.03414L20.7715 3.27477ZM38.9609 40.6761C38.7313 41.0208 38.6166 41.1932 38.5592 41.3655L36.0345 33.7244L36.4362 33.3797C36.4362 33.3797 38.0428 34.7585 38.5592 35.1607C39.0756 35.5629 41.9446 36.9992 41.9446 36.9992L42.1741 38.6078L38.9609 40.6761ZM38.2149 43.0316H37.5838L37.2969 42.055H36.3214C36.4935 41.8251 36.7231 41.7102 36.9526 41.6528C37.2395 41.5953 37.5264 41.6528 37.7559 41.8251C37.9854 41.9975 38.1576 42.2273 38.2149 42.5146C38.2723 42.6869 38.2723 42.8593 38.2149 43.0316ZM39.8789 41.423L39.0182 41.4804C39.0756 41.3655 39.1904 41.1932 39.3051 41.0783L43.0348 38.5504L43.4939 39.1249L39.8789 41.423ZM43.9529 35.6203L45.6169 36.3097L46.3629 37.4013V38.378L46.1907 38.5504L45.9038 38.6653L45.7317 38.1482V38.9525L45.5022 39.2398L45.2153 39.3547L45.1579 38.7802L45.0431 39.5845L44.5841 39.9867L44.125 39.642L44.0677 38.0333L42.4037 36.7694L42.1168 35.9076L37.6985 32.6328V32.403L38.2723 31.7136L40.0511 31.4838L43.9529 35.6203ZM34.7721 21.0849L35.805 21.3147L37.469 23.2107L38.6166 27.8643L38.2149 29.1282L39.3625 29.1857C39.3625 29.1857 40.0511 30.2198 40.0511 30.2773C40.0511 30.3347 39.8216 30.7943 39.8216 30.7943L39.2478 31.0241H37.928L37.3542 30.8518L36.8952 30.0475V29.7027L37.4116 29.4155L36.4935 27.4047L36.4362 24.9342L34.7721 21.0849ZM20.4846 15.7993L18.9927 13.846V12.7544L22.4929 8.38801V7.64113H23.1241L23.87 5.63031L22.9519 5.05579L23.0093 4.53872L23.4683 4.36636L24.0421 4.19401L25.9357 5.34305L25.5914 5.91757L25.4192 7.18152L24.2716 8.0433L22.1486 13.214L22.7798 13.6162L22.5503 14.6503L20.4846 15.7993ZM24.329 20.0508L22.2634 17.2931H21.4027L20.9436 16.4313L22.3207 15.1674L22.3781 15.7419L23.6405 13.9609L24.3864 14.7652L23.4109 16.6037L24.3864 15.9717L25.3045 16.8909L25.8209 16.9484L26.739 18.557L27.6571 24.3022L26.3947 29.8751L25.7061 28.0366L26.6816 24.0724L25.8783 21.1998L24.329 20.0508ZM21.1158 65.7252V66.3572L17.7877 66.4147L17.7304 65.3805L19.1075 64.0017L20.1977 53.4305L22.2634 48.4896L22.6076 45.617C22.6076 45.5595 23.1814 48.2598 23.1814 48.2598L21.7469 52.5687L21.4027 59.0608L22.8945 56.9351L21.8043 61.5887L21.9765 63.657L20.0829 64.3464L21.1158 65.7252ZM28.1161 65.8401L23.5257 65.6103L22.6076 64.3464L23.5831 63.7719L23.5257 59.348L24.7881 55.154L29.4932 54.6944L28.1161 65.8401ZM26.0504 53.2581L24.5585 51.592V44.9276L25.993 39.9292L25.7061 34.7585L26.9111 33.3797L32.8212 35.6203L31.3294 33.4946H35.2312L38.1002 41.423C38.0428 41.423 38.0428 41.3655 37.9854 41.3655C37.6411 41.1357 37.2395 41.0783 36.7804 41.1357C36.264 41.2506 35.8624 41.5953 35.6328 42.055H34.0836L33.7967 43.1465H27.4849V44.8127H30.2391L32.6491 46.1341L34.3705 48.6619V51.3047L32.7065 53.2581H26.0504ZM38.9035 66.1274L33.1081 65.955L34.7721 62.4505L37.6411 62.5079L38.3297 64.4038L39.2478 64.9784L38.9035 66.1274ZM44.4693 66.1848H41.8299V65.2082H44.0103L44.4693 66.1848ZM42.2889 62.393L43.1496 63.9442L41.4282 64.1166L40.2232 63.1973V62.393H42.2889Z" fill="white"/>
<path d="M76.4299 50.96C75.0528 50.96 73.7331 51.592 72.7002 52.6836C72.815 52.856 72.8724 53.0858 72.7576 53.2581C72.6428 53.6028 72.1838 53.7177 71.8395 53.7177C70.9215 55.154 70.3477 56.9925 70.3477 59.0608C70.3477 63.5421 73.0445 67.219 76.3725 67.219C78.0366 67.219 79.5284 66.2998 80.6186 64.8635C80.6186 64.8635 81.4793 63.657 80.4465 62.7952C79.471 61.9909 78.4956 63.025 78.4956 63.025C77.9218 63.7719 77.1185 64.174 76.3152 64.174C74.4216 64.174 72.9297 61.9334 72.9297 59.1182C72.9297 56.3031 74.479 54.0625 76.3152 54.0625C77.348 54.0625 78.2661 54.7519 78.8972 55.8435H81.2498C81.5941 55.8435 81.8236 55.4988 81.7088 55.154C80.7334 52.6836 78.7251 50.96 76.4299 50.96ZM118.834 28.9559C120.153 28.9559 121.186 27.8643 121.186 26.6003H119.579C119.579 27.06 119.235 27.4047 118.776 27.4047C118.317 27.4047 117.973 27.06 117.973 26.6003H116.366C116.424 27.8643 117.514 28.9559 118.834 28.9559ZM74.0773 34.1266V36.5396C74.1921 36.7119 74.3642 36.8843 74.4216 37.1141C74.5364 37.4588 74.5364 37.9184 74.2495 38.1482C74.1921 38.2057 74.1347 38.2057 74.0773 38.2631V46.8235C74.0773 47.1107 74.3069 47.3406 74.5938 47.3406H76.7742C77.0611 47.3406 77.2906 47.1107 77.2906 46.8235V43.8934L77.2332 43.836C77.1185 43.6636 76.9463 43.4913 76.9463 43.2615C76.9463 43.0316 77.1185 42.8593 77.2906 42.6869V34.7585C77.5201 34.4138 77.8644 34.1266 78.3234 34.1266H80.7908V30.9667H70.405V34.1266H74.0773ZM137.826 58.2565C138.744 57.5096 139.376 56.418 139.376 55.154C139.376 52.9709 137.597 51.1898 135.416 51.1898H130.137V67.219H135.474C138.113 67.219 140.294 65.0358 140.294 62.393C140.294 60.612 139.318 59.0608 137.826 58.2565ZM133.179 53.9476H134.039C134.097 53.7752 134.154 53.6028 134.269 53.4879C134.441 53.373 135.015 53.1432 135.129 53.4305C135.187 53.5454 135.015 53.8326 134.843 54.0625C135.588 54.2923 136.105 54.9817 136.105 55.786C136.105 56.8202 135.302 57.6245 134.269 57.6245H133.121V53.9476H133.179ZM134.957 64.5187H133.293V59.98H134.957C136.22 59.98 137.195 61.0142 137.195 62.2207C137.252 63.4846 136.22 64.5187 134.957 64.5187ZM94.7341 42.2848C94.7341 40.5038 93.7586 38.9525 92.2667 38.1482C93.1848 37.4013 93.816 36.3097 93.816 35.0458C93.816 32.8626 92.0372 31.0816 89.8568 31.0816H84.5205V45.0425C84.5205 45.0999 84.5778 45.0999 84.5778 45.1574C84.75 45.3872 84.75 45.7319 84.75 46.0192C84.75 46.4213 84.8647 46.766 84.9221 47.1107H89.7994C92.5536 47.1107 94.7341 44.9276 94.7341 42.2848ZM87.619 33.8393H88.7666C89.7994 33.8393 90.6027 34.6436 90.6027 35.6778C90.6027 36.7119 89.7994 37.5162 88.7666 37.5162H87.619V33.8393ZM87.7337 44.353V39.8143H89.3977C90.6601 39.8143 91.6355 40.8485 91.6355 42.055C91.6355 43.3189 90.6027 44.2956 89.3977 44.2956L87.7337 44.353ZM104.202 47.398C107.53 47.398 110.227 43.6636 110.227 39.1249C110.227 34.5287 107.53 30.8518 104.202 30.8518C102.997 30.8518 101.849 31.3689 100.931 32.1732C100.931 32.3455 100.931 32.5754 100.931 32.7477C100.931 32.8626 100.931 32.9775 100.874 33.0924C100.816 33.2648 100.644 33.3222 100.472 33.4371C100.357 33.552 100.243 33.7244 100.3 33.8968C100.128 33.8393 99.9556 33.7819 99.7261 33.7819C99.6113 34.1266 99.554 34.5287 99.4392 34.8734C99.3244 35.3331 99.2097 35.8501 98.9228 36.2523C98.808 36.4821 98.5785 36.6545 98.4064 36.8268C98.2342 37.5737 98.1768 38.378 98.1768 39.1824C98.1768 43.6636 100.874 47.398 104.202 47.398ZM104.144 33.9542C106.038 33.9542 107.53 36.2523 107.53 39.1249C107.53 41.9401 105.98 44.2956 104.144 44.2956C102.251 44.2956 100.759 41.9975 100.759 39.1249C100.759 36.2523 102.251 33.9542 104.144 33.9542ZM102.366 60.3247V61.5312C102.366 62.8526 101.447 63.9442 100.243 64.2315C100.185 64.2315 100.185 64.2315 100.128 64.2315V67.219C103.054 66.9892 105.349 64.5187 105.349 61.5312V61.4163V54.005H108.792V67.219H111.661V51.2473H102.366V60.3247ZM117.514 45.8468L120.325 39.5845L120.67 38.8951V47.1682H123.768V41.7677C123.711 41.7102 123.653 41.5953 123.653 41.4804C123.653 41.3655 123.653 41.3081 123.596 41.1932C123.539 40.9634 123.309 40.9059 123.194 40.7336C123.137 40.6187 123.08 40.4463 123.08 40.2739L123.022 39.2973C123.022 39.1824 123.022 39.0675 123.022 38.9525C123.08 38.7802 123.309 38.6653 123.424 38.4929C123.481 38.378 123.539 38.2057 123.596 38.0908C123.653 37.9759 123.711 37.9184 123.768 37.8035V32.8052C123.768 31.7136 122.908 30.8518 121.817 30.8518C120.957 30.8518 120.211 31.4263 119.981 32.2306L116.768 39.3547V30.9667H113.727V45.2723C113.727 46.3639 114.587 47.2256 115.678 47.2256C116.538 47.2256 117.284 46.6511 117.514 45.8468ZM89.6273 51.5346C89.5699 51.6495 89.5125 51.7644 89.3977 51.8793C89.2256 52.0516 88.8813 51.9942 88.7092 51.8793C88.537 51.7644 88.4223 51.5346 88.3649 51.3048H85.6107V67.219H88.5944V54.005H93.6438V67.219H96.5128V64.9784C96.2259 64.5762 96.1112 64.0591 96.1686 63.5995C96.1686 63.5421 96.1686 63.4846 96.1112 63.4272H96.0538V63.4846C95.9964 63.4846 96.0538 63.4272 96.0538 63.4272C96.0538 63.1399 96.0538 62.7952 96.0538 62.5079C96.0538 62.4505 96.0538 62.393 95.9964 62.393H95.939V62.4505C95.8817 62.4505 95.939 62.393 95.939 62.393C95.8817 61.9334 95.939 61.4738 95.9964 61.0716C96.0538 60.2673 96.1686 59.4055 96.4555 58.6012V58.5437V51.2473H89.6273C89.742 51.3622 89.6846 51.4771 89.6273 51.5346ZM125.088 61.8759C125.145 61.3589 125.145 60.8993 125.145 60.3822L122.908 52.7985C122.793 51.7644 121.875 50.9026 120.784 50.9026C119.694 50.9026 118.776 51.7069 118.661 52.7985L114.415 67.2764H117.571L119.235 61.7036H122.391L124.055 67.2764H127.211L125.662 61.9334C125.432 61.8759 125.26 61.8185 125.088 61.8759ZM120.096 58.6586L120.498 57.3372C120.612 56.9925 121.071 56.9925 121.129 57.3372L121.53 58.6586H120.096Z" fill="white"/>
<path d="M157.852 60.4396C159.114 59.5204 159.975 58.0266 159.975 56.3031C159.975 53.4879 157.68 51.2473 154.925 51.2473H152.63H149.302V66.0125C149.474 66.0699 149.647 66.1274 149.647 66.2998C149.647 66.4147 149.647 66.5296 149.647 66.587C149.704 66.7019 149.819 66.7019 149.876 66.7594C150.106 66.8743 150.335 67.0466 150.507 67.2764C150.507 67.2764 150.507 67.2764 150.507 67.3339H152.573V61.4738H154.122C154.122 61.4738 156.475 63.3697 156.475 65.1507V67.4488H159.745V64.5187C159.86 62.7952 157.852 60.4396 157.852 60.4396ZM154.352 58.3714H152.63V54.1199H154.352C155.499 54.1199 156.475 55.0966 156.475 56.2456C156.475 57.4521 155.499 58.3714 154.352 58.3714Z" fill="#D82140"/>
<path d="M146.261 65.5529C146.261 66.5296 145.515 67.2764 144.54 67.2764C143.564 67.2764 142.818 66.5296 142.818 65.5529C142.818 64.5762 143.564 63.8293 144.54 63.8293C145.515 63.8293 146.261 64.5762 146.261 65.5529Z" fill="#D82140"/>
<path d="M172.943 62.6803V51.0175H169.901V62.6228C169.901 63.7719 168.983 64.6911 167.836 64.6911C166.688 64.6911 165.77 63.7719 165.77 62.6228V57.6819C165.713 57.567 165.598 57.4521 165.598 57.3372C165.541 57.05 165.541 56.7627 165.598 56.4754C165.598 56.3605 165.655 56.3031 165.598 56.1882C165.598 56.0733 165.541 56.0158 165.483 55.9584C165.196 55.3264 165.196 54.5221 165.483 53.8326C165.541 53.7177 165.655 53.5454 165.655 53.4305C165.655 53.2581 165.598 53.0858 165.655 52.9709C165.655 52.9134 165.713 52.9134 165.713 52.856V50.96H162.672V62.5654C162.672 65.438 164.967 67.7361 167.836 67.7361C169.729 67.7361 171.393 66.7019 172.254 65.1507C172.254 64.8635 172.139 64.5187 172.254 64.2315C172.311 64.1166 172.369 64.0017 172.426 63.8868C172.484 63.7719 172.541 63.5995 172.598 63.4846C172.656 63.3697 172.77 63.2548 172.885 63.1399C172.943 63.0824 173 62.8526 172.943 62.6803Z" fill="#D82140"/>
</svg>
