<svg width="16" height="14" viewBox="0 0 16 14" fill="none" xmlns="http://www.w3.org/2000/svg">
<g clip-path="url(#clip0_42_689)">
<path d="M14.8375 0.155914L0.626521 5.80108C0.626521 5.80108 -0.0476661 6.03226 0.00541955 6.46237C0.0585052 6.89247 0.605287 7.0914 0.605287 7.0914L4.17795 8.31183L4.18326 8.3172V8.31183L12.7619 2.79032C12.7619 2.79032 13.2556 2.48387 13.2397 2.79032C13.2397 2.79032 13.3299 2.84409 13.0645 3.09677C12.7991 3.34946 6.32261 9.24193 6.32261 9.24193L6.31199 9.35484L12.1408 13.8817C13.1123 14.3118 13.4679 13.414 13.4679 13.414L16.0001 0.494623C16.0001 -0.365592 14.8322 0.155914 14.8375 0.155914Z" fill="white"/>
<path d="M8.54135 11.086L6.23213 13.2204C6.23213 13.2204 6.05164 13.3602 5.85522 13.2742L6.29583 9.31183" fill="white"/>
</g>
<defs>
<clipPath id="clip0_42_689">
<rect width="16" height="14" fill="white"/>
</clipPath>
</defs>
</svg>
