<svg width="18" height="19" viewBox="0 0 18 19" fill="none" xmlns="http://www.w3.org/2000/svg">
<g clip-path="url(#clip0_42_692)">
<path d="M15.372 2.7602C13.68 0.983085 11.43 0 9.036 0C4.104 0 0.072 4.21592 0.072 9.41493C0.072 11.0786 0.486 12.6856 1.26 14.1224L0 19L4.752 17.6955C6.066 18.4517 7.542 18.8488 9.036 18.8488C13.968 18.8488 18 14.6328 18 9.43383C18 6.9005 17.064 4.53731 15.372 2.7602ZM9.036 17.2418C7.704 17.2418 6.39 16.8637 5.238 16.1453L4.968 15.9751L2.16 16.7692L2.916 13.8766L2.736 13.5741C1.998 12.3264 1.602 10.8896 1.602 9.41493C1.584 5.10448 4.932 1.58806 9.036 1.58806C11.034 1.58806 12.888 2.401 14.31 3.87562C15.714 5.35025 16.488 7.31642 16.488 9.41493C16.488 13.7254 13.14 17.2418 9.036 17.2418ZM13.122 11.3811C12.906 11.2677 11.79 10.7005 11.592 10.6249C11.394 10.5493 11.232 10.5114 11.088 10.7383C10.944 10.9652 10.512 11.4945 10.386 11.6647C10.26 11.8159 10.116 11.8348 9.9 11.7214C9.684 11.608 8.946 11.3622 8.1 10.5493C7.434 9.92537 6.984 9.15025 6.858 8.92338C6.732 8.69652 6.84 8.56418 6.948 8.45075C7.056 8.33731 7.164 8.16716 7.29 8.03483C7.398 7.90249 7.434 7.80796 7.506 7.63781C7.578 7.48657 7.542 7.33532 7.488 7.22189C7.434 7.10846 6.984 5.95522 6.804 5.48259C6.624 5.02886 6.444 5.08557 6.3 5.08557C6.174 5.08557 6.012 5.08557 5.868 5.08557C5.724 5.08557 5.472 5.14229 5.274 5.38806C5.076 5.61493 4.482 6.201 4.482 7.35423C4.482 8.50746 5.292 9.62289 5.4 9.79303C5.508 9.94428 6.984 12.3264 9.234 13.3473C9.774 13.593 10.188 13.7254 10.512 13.8388C11.052 14.009 11.538 13.99 11.916 13.9333C12.348 13.8577 13.248 13.3662 13.428 12.8179C13.608 12.2697 13.608 11.797 13.554 11.7025C13.5 11.5512 13.356 11.4945 13.122 11.3811Z" fill="white"/>
</g>
<defs>
<clipPath id="clip0_42_692">
<rect width="18" height="19" fill="white"/>
</clipPath>
</defs>
</svg>
